The Jayne Mansfield Story (1980) DVDRip | MVO + Original (eng)



The gaudy rise and dizzy fall of the last great Hollywood blonde bombshell: Jayne Mansfield.



Director: Dick Lowry

Writers: Martha Saxton (book), Charles Dennis (teleplay)

Stars: Loni Anderson, Arnold Schwarzenegger and Ray Buktenica 

 
http://www.imdb.com/title/tt0080947/


File: Istoriya.Djein.Mensfild.1980.DVDRip.XViD.rus.MVO.eng.avi
Play length: 01:32:12.824 (132655 frames)
Subtitles: Not Present
Video: 640x480 (1.33:1), 23.976 fps, XviD build 64 ~1983 kbps avg, 0.27 bit/pixel
Audio #1: 48 kHz, MPEG Layer 3, 2 ch, ~128.00 kbps avg rus
Audio #2: 44.100 kHz, MPEG Layer 3, 2 ch, ~128.00 kbps avg eng

General
Complete name                    : Istoriya.Djein.Mensfild.1980.DVDRip.XViD.rus.MVO.eng.avi
Format                           : AVI
Format/Info                      : Audio Video Interleave
File size                        : 1.45 GiB
Duration                         : 1h 32mn
Overall bit rate                 : 2 255 Kbps
Movie name                       : The Jayne Mansfield Story
Director                         : Dick Lowry
Genre                            : Drama
Writing application              : VirtualDubMod 1.5.10.2 (build 2540/release)
Original source form/Name        : Movie
Copyright                        : http://upload.by/
Comment                          : by demon1

Video
ID                               : 0
Format                           : MPEG-4 Visual
Format profile                   : Advanced Simple@L5
Format settings, BVOP            : 1
Format settings, QPel            : No
Format settings, GMC             : No warppoints
Format settings, Matrix          : Custom
Codec ID                         : XVID
Codec ID/Hint                    : XviD
Duration                         : 1h 32mn
Bit rate                         : 1 985 Kbps
Width                            : 640 pixels
Height                           : 480 pixels
Display aspect ratio             : 4:3
Frame rate                       : 23.976 fps
Color space                      : YUV
Chroma subsampling               : 4:2:0
Bit depth                        : 8 bits
Scan type                        : Progressive
Compression mode                 : Lossy
Bits/(Pixel*Frame)               : 0.269
Stream size                      : 1.28 GiB (88%)
Writing library                  : XviD 64

Audio #1
ID                               : 1
Format                           : MPEG Audio
Format version                   : Version 1
Format profile                   : Layer 3
Mode                             : Joint stereo
Mode extension                   : MS Stereo
Codec ID                         : 55
Codec ID/Hint                    : MP3
Duration                         : 1h 32mn
Bit rate mode                    : Constant
Bit rate                         : 128 Kbps
Channel(s)                       : 2 channels
Sampling rate                    : 48.0 KHz
Compression mode                 : Lossy
Stream size                      : 84.4 MiB (6%)
Alignment                        : Aligned on interleaves
Interleave, duration             : 42 ms (1.00 video frame)
Interleave, preload duration     : 504 ms

Audio #2
ID                               : 2
Format                           : MPEG Audio
Format version                   : Version 1
Format profile                   : Layer 3
Mode                             : Joint stereo
Mode extension                   : MS Stereo
Codec ID                         : 55
Codec ID/Hint                    : MP3
Duration                         : 1h 32mn
Bit rate mode                    : Constant
Bit rate                         : 128 Kbps
Channel(s)                       : 2 channels
Sampling rate                    : 44.1 KHz
Compression mode                 : Lossy
Stream size                      : 84.4 MiB (6%)
Alignment                        : Split accross interleaves
Interleave, duration             : 42 ms (1.00 video frame)
Interleave, preload duration     : 500 ms

 
http://bayimg.com/EaMmOaadg
 
http://bayimg.com/EAMmNAaDg
 
http://bayimg.com/eAMmMAADG